#N canvas 730 54 492 581 10;
#X obj 157 401 *~ 0.1;
#X obj 165 495 dac~;
#X obj 125 240 osc~ 220;
#X obj 130 436 hip~ 1;
#X obj 186 437 hip~ 1;
#X obj 183 465 clip~ -1 1;
#X obj 111 466 clip~ -1 1;
#X floatatom 125 214 5 0 0 0 - - -;
#X obj 125 185 mtof;
#X obj 13 232 vline~;
#X msg 13 184 1 10 \, 0 500 10;
#X obj 158 365 *~;
#X obj 22 156 / 127;
#X obj 60 111 notein 1;
#X obj 300 247 osc~ 220;
#X floatatom 300 221 5 0 0 0 - - -;
#X obj 300 192 mtof;
#X obj 188 239 vline~;
#X msg 188 191 1 10 \, 0 500 10;
#X obj 197 163 / 127;
#X obj 235 118 notein 1;
#X obj 416 156 osc~ 220;
#X floatatom 416 130 5 0 0 0 - - -;
#X obj 416 101 mtof;
#X obj 304 148 vline~;
#X msg 304 100 1 10 \, 0 500 10;
#X obj 313 72 / 127;
#X obj 351 27 notein 1;
#X obj 440 369 osc~ 220;
#X floatatom 440 343 5 0 0 0 - - -;
#X obj 440 314 mtof;
#X obj 328 361 vline~;
#X msg 328 313 1 10 \, 0 500 10;
#X obj 337 285 / 127;
#X obj 375 240 notein 1;
#X connect 0 0 3 0;
#X connect 0 0 4 0;
#X connect 2 0 11 1;
#X connect 3 0 6 0;
#X connect 4 0 5 0;
#X connect 5 0 1 1;
#X connect 6 0 1 0;
#X connect 7 0 2 0;
#X connect 8 0 7 0;
#X connect 9 0 11 0;
#X connect 10 0 9 0;
#X connect 11 0 0 0;
#X connect 12 0 10 0;
#X connect 13 0 8 0;
#X connect 13 1 12 0;
#X connect 14 0 11 1;
#X connect 15 0 14 0;
#X connect 16 0 15 0;
#X connect 17 0 11 0;
#X connect 18 0 17 0;
#X connect 19 0 18 0;
#X connect 20 0 16 0;
#X connect 20 1 19 0;
#X connect 21 0 11 1;
#X connect 22 0 21 0;
#X connect 23 0 22 0;
#X connect 24 0 11 0;
#X connect 25 0 24 0;
#X connect 26 0 25 0;
#X connect 27 0 23 0;
#X connect 27 1 26 0;
#X connect 28 0 11 1;
#X connect 29 0 28 0;
#X connect 30 0 29 0;
#X connect 31 0 11 0;
#X connect 32 0 31 0;
#X connect 33 0 32 0;
#X connect 34 0 30 0;
#X connect 34 1 33 0;
