#N canvas 260 53 752 446 10;
#X obj 101 327 phasor~;
#X floatatom 151 330 5 0 0.5 0 - - -;
#X obj 100 383 /~;
#X obj 114 354 -~;
#X obj 101 404 clip~ -1 1;
#X obj 176 404 samphold~;
#X obj 177 380 noise~;
#X obj 225 379 phasor~ 50;
#X obj 224 354 sig~;
#X obj 24 296 sig~;
#X obj 23 398 -~;
#X obj 23 323 phasor~;
#X obj 64 375 *~ 1;
#X obj 23 374 *~ 2;
#X obj 23 347 clip~ 0 0.5;
#X obj 23 420 *~ 2;
#X obj 224 329 * 10;
#X obj 311 379 *~;
#X obj 311 405 hip~ 40;
#X floatatom 47 229 5 0 0 0 - - -;
#X obj 23 272 mtof;
#X msg 272 101 1;
#X text 56 36 midi root pitch;
#X text 203 17 midi velocity;
#X text 399 466 audio out;
#X obj 279 40 sel 0;
#X obj 304 65 bng 15 250 50 0 empty empty empty 0 -6 0 8 -262144 -1
-1;
#X obj 281 64 bng 15 250 50 0 empty empty empty 0 -6 0 8 -262144 -1
-1;
#X msg 302 101 0;
#X obj 151 263 ctlin 1 1;
#X obj 151 286 / 254;
#X text 209 262 modwheel PWM;
#X obj 326 202 adsr 1 2 0 100 300;
#X floatatom 429 93 5 0 1 1 max_amplitude - -;
#X floatatom 429 112 5 2 400 1 attack_ms - -;
#X floatatom 429 131 5 2 400 1 decay_ms - -;
#X floatatom 429 150 5 0 100 1 sustain_percent - -;
#X floatatom 429 172 5 2 400 1 release_ms - -;
#X text 451 74 ADSR parameters;
#X obj 325 16 loadbang;
#X obj 324 63 unpack f f f f f f;
#X text 434 44 Defaults;
#X msg 325 43 0.5 2 0 100 200 0.5;
#X obj 314 442 dac~;
#X obj 49 9 notein;
#X connect 0 0 2 0;
#X connect 0 0 3 0;
#X connect 1 0 3 1;
#X connect 2 0 4 0;
#X connect 3 0 2 1;
#X connect 4 0 17 0;
#X connect 5 0 17 0;
#X connect 6 0 5 0;
#X connect 7 0 5 1;
#X connect 8 0 7 0;
#X connect 9 0 11 0;
#X connect 9 0 0 0;
#X connect 10 0 15 0;
#X connect 11 0 12 0;
#X connect 11 0 14 0;
#X connect 12 0 10 1;
#X connect 13 0 10 0;
#X connect 14 0 13 0;
#X connect 15 0 17 0;
#X connect 16 0 8 0;
#X connect 17 0 18 0;
#X connect 18 0 43 0;
#X connect 18 0 43 1;
#X connect 20 0 16 0;
#X connect 20 0 9 0;
#X connect 21 0 32 0;
#X connect 25 0 27 0;
#X connect 25 1 26 0;
#X connect 26 0 21 0;
#X connect 27 0 28 0;
#X connect 28 0 32 0;
#X connect 29 0 30 0;
#X connect 30 0 1 0;
#X connect 32 0 17 1;
#X connect 33 0 32 1;
#X connect 34 0 32 2;
#X connect 35 0 32 3;
#X connect 36 0 32 4;
#X connect 37 0 32 5;
#X connect 39 0 42 0;
#X connect 40 0 33 0;
#X connect 40 1 34 0;
#X connect 40 2 35 0;
#X connect 40 3 36 0;
#X connect 40 4 37 0;
#X connect 40 5 1 0;
#X connect 42 0 40 0;
#X connect 44 0 19 0;
#X connect 44 0 20 0;
#X connect 44 1 25 0;
