#N canvas 699 39 451 437 10;
#X obj 192 83 poly 6 1;
#X obj 185 126 pack 0 0 0;
#X obj 167 171 route 1 2 3 4 5 6;
#X obj 274 215 tone;
#X obj 241 214 tone;
#X obj 203 213 tone;
#X obj 133 214 tone;
#X obj 97 213 tone;
#X obj 165 216 tone;
#X obj 116 255 expr~ $v1+$v2+$v3+$v4+$v5+$v6;
#X obj 30 69 vsl 15 128 0 127 0 0 empty empty empty 0 -9 0 10 -262144
-1 -1 0 1;
#X obj 22 221 pack 0 500;
#X obj 24 257 line;
#X obj 66 314 *~;
#X obj 69 352 dac~;
#X obj 185 41 r midinote;
#X connect 0 0 1 0;
#X connect 0 1 1 1;
#X connect 0 2 1 2;
#X connect 1 0 2 0;
#X connect 2 0 7 0;
#X connect 2 1 6 0;
#X connect 2 2 8 0;
#X connect 2 3 5 0;
#X connect 2 4 4 0;
#X connect 2 5 3 0;
#X connect 3 0 9 5;
#X connect 4 0 9 4;
#X connect 5 0 9 3;
#X connect 6 0 9 1;
#X connect 7 0 9 0;
#X connect 8 0 9 2;
#X connect 9 0 13 1;
#X connect 10 0 11 0;
#X connect 11 0 12 0;
#X connect 12 0 13 0;
#X connect 13 0 14 0;
#X connect 13 0 14 1;
#X connect 15 0 0 0;
#X connect 15 0 0 1;
