#N canvas 0 0 656 300 10;
#N canvas 0 0 982 698 lfo~ 0;
#X obj 44 178 osc~ 1;
#X obj 45 203 +~ 1;
#X obj 45 225 *~ 0.5;
#X obj 32 326 *~;
#X obj 105 114 hsl 90 10 0 1 0 1 empty empty depth 5 5 0 10 -232576
-1 -1 4100 1;
#X floatatom 157 149 5 0 0 0 - - -;
#X obj 157 168 swap 1;
#X obj 163 194 -;
#X obj 46 298 +~;
#X msg 163 216 \$1 30;
#X obj 163 236 line~;
#X msg 102 192 \$1 30;
#X obj 102 214 line~;
#X obj 45 248 *~;
#X obj 105 127 hsl 90 10 0 20 0 1 empty empty rate 5 5 0 10 -204800
-1 -1 6800 1;
#X text 211 114 lfo depth and amplitude;
#X obj 32 76 inlet~;
#X obj 31 347 outlet~;
#X connect 0 0 1 0;
#X connect 1 0 2 0;
#X connect 2 0 13 0;
#X connect 3 0 17 0;
#X connect 4 0 11 0;
#X connect 4 0 6 0;
#X connect 5 0 6 0;
#X connect 6 0 7 0;
#X connect 6 1 7 1;
#X connect 7 0 9 0;
#X connect 8 0 3 1;
#X connect 9 0 10 0;
#X connect 10 0 8 1;
#X connect 11 0 12 0;
#X connect 12 0 13 1;
#X connect 13 0 8 0;
#X connect 14 0 0 0;
#X connect 16 0 3 0;
#X coords 0 -1 1 1 100 40 1 100 100;
#X restore 68 63 pd lfo~;
#N canvas 0 0 450 300 output 0;
#X floatatom -7 109 0 0 0 0 - - -;
#N canvas 159 26 589 412 output 0;
#X obj 437 163 t b;
#X obj 437 113 f;
#X obj 437 63 inlet;
#X text 443 32 mute;
#X obj 437 188 f;
#X msg 524 181 0;
#X msg 437 88 bang;
#X obj 437 138 moses 1;
#X obj 524 156 t b f;
#X obj 496 120 moses 1;
#X obj 83 148 dbtorms;
#X obj 496 95 r master-lvl;
#X obj 83 42 r master-lvl;
#X obj 437 213 s master-lvl;
#X obj 22 181 inlet~;
#X obj 298 44 inlet;
#X text 298 21 level;
#X obj 298 103 s master-lvl;
#X msg 96 65 set \$1;
#X obj 96 89 outlet;
#X msg 313 67 \; pd dsp 1;
#X obj 83 194 line~;
#X obj 22 212 *~;
#X obj 83 171 pack 0 50;
#X text 20 158 audio;
#X text 93 110 show level;
#X text 133 192 comment;
#X obj 23 296 dac~;
#X text 219 217 comment;
#X obj 193 191 dbtorms;
#X obj 193 85 r master-lvl;
#X obj 132 224 inlet~;
#X msg 206 108 set \$1;
#X obj 206 132 outlet;
#X obj 193 237 line~;
#X obj 132 255 *~;
#X obj 193 214 pack 0 50;
#X text 203 153 show level;
#X text 130 201 comment;
#X text 243 235 comment;
#X connect 0 0 4 0;
#X connect 1 0 7 0;
#X connect 2 0 6 0;
#X connect 4 0 13 0;
#X connect 5 0 13 0;
#X connect 6 0 1 0;
#X connect 7 0 0 0;
#X connect 7 1 8 0;
#X connect 8 0 5 0;
#X connect 9 1 4 1;
#X connect 10 0 23 0;
#X connect 11 0 1 1;
#X connect 11 0 9 0;
#X connect 12 0 10 0;
#X connect 12 0 18 0;
#X connect 14 0 22 0;
#X connect 15 0 17 0;
#X connect 15 0 20 0;
#X connect 18 0 19 0;
#X connect 21 0 22 1;
#X connect 22 0 27 0;
#X connect 23 0 21 0;
#X connect 29 0 36 0;
#X connect 30 0 29 0;
#X connect 30 0 32 0;
#X connect 31 0 35 0;
#X connect 32 0 33 0;
#X connect 34 0 35 1;
#X connect 35 0 27 1;
#X connect 36 0 34 0;
#X restore -14 66 pd output;
#X msg 37 44 MUTE;
#X obj 105 119 hsl 70 15 0 100 0 1 empty empty volume 9 8 0 10 -262130
-1 -1 6762 1;
#X obj 179 119 tgl 15 0 \$0-mute empty empty 15 6 0 10 -258113 -1 -1
0 1;
#X obj 37 21 r \$0-mute;
#X obj -14 -1 inlet~ L;
#X obj 2 -21 inlet~ R;
#X obj 175 5 loadbang;
#X msg 175 32 98;
#X text 328 190 comment;
#X connect 0 0 3 0;
#X connect 1 0 0 0;
#X connect 2 0 1 3;
#X connect 3 0 1 2;
#X connect 5 0 2 0;
#X connect 6 0 1 0;
#X connect 7 0 1 1;
#X connect 8 0 9 0;
#X connect 9 0 3 0;
#X coords 0 -1 1 1 96 36 1 100 100;
#X restore 68 162 pd output;
#N canvas 78 255 800 634 PolyModCos5 0;
#X obj -76 -150 notein;
#X obj -80 -118 poly 5 1;
#X obj -82 -91 pack f f f;
#X obj -82 -66 route 1 2 3 4 5;
#X obj -137 -16 unpack;
#N canvas 0 0 466 449 coS 0;
#N canvas 0 0 466 487 cosin 0;
#X obj 184 220 outlet~;
#X obj 143 74 cos~;
#X floatatom 190 -136 4 0 100 0 - - -;
#X obj 190 -112 / 10;
#X obj 143 44 *~;
#X obj 190 -40 line~;
#X obj 190 -88 max 0;
#X text 39 -83 fundamental;
#X text 39 -64 frequency;
#X obj 185 74 cos~;
#X obj 226 -13 wrap~;
#X obj 190 14 -~;
#X obj 185 44 +~;
#X obj 190 111 -~;
#X obj 205 141 *~;
#X obj 183 166 +~;
#X obj 190 -64 pack 0 50;
#X obj 43 -15 phasor~ 130;
#X obj 184 192 hip~ 5;
#X obj 191 -166 inlet;
#X obj 117 -83 inlet;
#X obj 106 -48 mtof;
#X connect 1 0 13 1;
#X connect 1 0 15 0;
#X connect 2 0 3 0;
#X connect 3 0 6 0;
#X connect 4 0 1 0;
#X connect 4 0 12 0;
#X connect 5 0 11 0;
#X connect 5 0 10 0;
#X connect 6 0 16 0;
#X connect 9 0 13 0;
#X connect 10 0 11 1;
#X connect 10 0 14 1;
#X connect 11 0 4 1;
#X connect 12 0 9 0;
#X connect 13 0 14 0;
#X connect 14 0 15 1;
#X connect 15 0 18 0;
#X connect 16 0 5 0;
#X connect 17 0 4 0;
#X connect 17 0 12 1;
#X connect 18 0 0 0;
#X connect 19 0 2 0;
#X connect 20 0 21 0;
#X connect 21 0 17 0;
#X restore 100 220 pd cosin;
#X obj 148 183 hsl 80 10 1 127 0 1 empty empty empty -2 -8 0 10 -258113
-1 -1 2006 1;
#X obj 103 115 hsl 80 10 0 87.34 0 1 empty empty empty -2 -8 0 10 -260097
-1 -1 6603 1;
#X obj 102 328 outlet~;
#X obj 100 60 inlet;
#X obj 101 250 *~ 0.7;
#X obj 163 38 inlet;
#X obj 102 304 *~;
#X obj 117 281 line~;
#X obj 163 230 / 127;
#X floatatom 257 75 5 0 0 0 - - -;
#X obj 257 35 ctlin 1;
#X msg 163 250 \$1 90;
#X connect 0 0 5 0;
#X connect 1 0 0 1;
#X connect 2 0 0 0;
#X connect 4 0 2 0;
#X connect 5 0 7 0;
#X connect 6 0 9 0;
#X connect 7 0 3 0;
#X connect 8 0 7 1;
#X connect 9 0 12 0;
#X connect 10 0 1 0;
#X connect 11 0 10 0;
#X connect 12 0 8 0;
#X coords 0 0 1 1 86 40 0;
#X restore -89 19 pd coS;
#X obj -89 -16 unpack;
#N canvas 0 0 466 449 coS 0;
#N canvas 0 0 466 487 cosin 0;
#X obj 184 220 outlet~;
#X obj 143 74 cos~;
#X floatatom 190 -136 4 0 100 0 - - -;
#X obj 190 -112 / 10;
#X obj 143 44 *~;
#X obj 190 -40 line~;
#X obj 190 -88 max 0;
#X text 39 -83 fundamental;
#X text 39 -64 frequency;
#X obj 185 74 cos~;
#X obj 226 -13 wrap~;
#X obj 190 14 -~;
#X obj 185 44 +~;
#X obj 190 111 -~;
#X obj 205 141 *~;
#X obj 183 166 +~;
#X obj 190 -64 pack 0 50;
#X obj 43 -15 phasor~ 130;
#X obj 184 192 hip~ 5;
#X obj 191 -166 inlet;
#X obj 117 -83 inlet;
#X obj 106 -48 mtof;
#X connect 1 0 13 1;
#X connect 1 0 15 0;
#X connect 2 0 3 0;
#X connect 3 0 6 0;
#X connect 4 0 1 0;
#X connect 4 0 12 0;
#X connect 5 0 11 0;
#X connect 5 0 10 0;
#X connect 6 0 16 0;
#X connect 9 0 13 0;
#X connect 10 0 11 1;
#X connect 10 0 14 1;
#X connect 11 0 4 1;
#X connect 12 0 9 0;
#X connect 13 0 14 0;
#X connect 14 0 15 1;
#X connect 15 0 18 0;
#X connect 16 0 5 0;
#X connect 17 0 4 0;
#X connect 17 0 12 1;
#X connect 18 0 0 0;
#X connect 19 0 2 0;
#X connect 20 0 21 0;
#X connect 21 0 17 0;
#X restore 100 220 pd cosin;
#X obj 148 183 hsl 80 10 1 127 0 1 empty empty empty -2 -8 0 10 -258113
-1 -1 2006 1;
#X obj 103 115 hsl 80 10 0 87.34 0 1 empty empty empty -2 -8 0 10 -260097
-1 -1 6332 1;
#X obj 102 328 outlet~;
#X obj 100 60 inlet;
#X obj 101 250 *~ 0.7;
#X obj 163 38 inlet;
#X obj 102 304 *~;
#X obj 117 281 line~;
#X obj 163 230 / 127;
#X floatatom 257 75 5 0 0 0 - - -;
#X obj 257 35 ctlin 1;
#X msg 163 250 \$1 90;
#X connect 0 0 5 0;
#X connect 1 0 0 1;
#X connect 2 0 0 0;
#X connect 4 0 2 0;
#X connect 5 0 7 0;
#X connect 6 0 9 0;
#X connect 7 0 3 0;
#X connect 8 0 7 1;
#X connect 9 0 12 0;
#X connect 10 0 1 0;
#X connect 11 0 10 0;
#X connect 12 0 8 0;
#X coords 0 0 1 1 86 40 0;
#X restore -44 19 pd coS;
#X obj -44 -16 unpack;
#N canvas 0 0 466 449 coS 0;
#N canvas 0 0 466 487 cosin 0;
#X obj 184 220 outlet~;
#X obj 143 74 cos~;
#X floatatom 190 -136 4 0 100 0 - - -;
#X obj 190 -112 / 10;
#X obj 143 44 *~;
#X obj 190 -40 line~;
#X obj 190 -88 max 0;
#X text 39 -83 fundamental;
#X text 39 -64 frequency;
#X obj 185 74 cos~;
#X obj 226 -13 wrap~;
#X obj 190 14 -~;
#X obj 185 44 +~;
#X obj 190 111 -~;
#X obj 205 141 *~;
#X obj 183 166 +~;
#X obj 190 -64 pack 0 50;
#X obj 43 -15 phasor~ 130;
#X obj 184 192 hip~ 5;
#X obj 191 -166 inlet;
#X obj 117 -83 inlet;
#X obj 106 -48 mtof;
#X connect 1 0 13 1;
#X connect 1 0 15 0;
#X connect 2 0 3 0;
#X connect 3 0 6 0;
#X connect 4 0 1 0;
#X connect 4 0 12 0;
#X connect 5 0 11 0;
#X connect 5 0 10 0;
#X connect 6 0 16 0;
#X connect 9 0 13 0;
#X connect 10 0 11 1;
#X connect 10 0 14 1;
#X connect 11 0 4 1;
#X connect 12 0 9 0;
#X connect 13 0 14 0;
#X connect 14 0 15 1;
#X connect 15 0 18 0;
#X connect 16 0 5 0;
#X connect 17 0 4 0;
#X connect 17 0 12 1;
#X connect 18 0 0 0;
#X connect 19 0 2 0;
#X connect 20 0 21 0;
#X connect 21 0 17 0;
#X restore 100 220 pd cosin;
#X obj 148 183 hsl 80 10 1 127 0 1 empty empty empty -2 -8 0 10 -258113
-1 -1 2006 1;
#X obj 103 115 hsl 80 10 0 87.34 0 1 empty empty empty -2 -8 0 10 -260097
-1 -1 6060 1;
#X obj 102 328 outlet~;
#X obj 100 60 inlet;
#X obj 101 250 *~ 0.7;
#X obj 163 38 inlet;
#X obj 102 304 *~;
#X obj 117 281 line~;
#X obj 163 230 / 127;
#X floatatom 257 75 5 0 0 0 - - -;
#X obj 257 35 ctlin 1;
#X msg 163 250 \$1 90;
#X connect 0 0 5 0;
#X connect 1 0 0 1;
#X connect 2 0 0 0;
#X connect 4 0 2 0;
#X connect 5 0 7 0;
#X connect 6 0 9 0;
#X connect 7 0 3 0;
#X connect 8 0 7 1;
#X connect 9 0 12 0;
#X connect 10 0 1 0;
#X connect 11 0 10 0;
#X connect 12 0 8 0;
#X coords 0 0 1 1 86 40 0;
#X restore 4 19 pd coS;
#X obj 4 -16 unpack;
#N canvas 0 0 466 449 coS 0;
#N canvas 0 0 466 487 cosin 0;
#X obj 184 220 outlet~;
#X obj 143 74 cos~;
#X floatatom 190 -136 4 0 100 0 - - -;
#X obj 190 -112 / 10;
#X obj 143 44 *~;
#X obj 190 -40 line~;
#X obj 190 -88 max 0;
#X text 39 -83 fundamental;
#X text 39 -64 frequency;
#X obj 185 74 cos~;
#X obj 226 -13 wrap~;
#X obj 190 14 -~;
#X obj 185 44 +~;
#X obj 190 111 -~;
#X obj 205 141 *~;
#X obj 183 166 +~;
#X obj 190 -64 pack 0 50;
#X obj 43 -15 phasor~ 130;
#X obj 184 192 hip~ 5;
#X obj 191 -166 inlet;
#X obj 117 -83 inlet;
#X obj 106 -48 mtof;
#X connect 1 0 13 1;
#X connect 1 0 15 0;
#X connect 2 0 3 0;
#X connect 3 0 6 0;
#X connect 4 0 1 0;
#X connect 4 0 12 0;
#X connect 5 0 11 0;
#X connect 5 0 10 0;
#X connect 6 0 16 0;
#X connect 9 0 13 0;
#X connect 10 0 11 1;
#X connect 10 0 14 1;
#X connect 11 0 4 1;
#X connect 12 0 9 0;
#X connect 13 0 14 0;
#X connect 14 0 15 1;
#X connect 15 0 18 0;
#X connect 16 0 5 0;
#X connect 17 0 4 0;
#X connect 17 0 12 1;
#X connect 18 0 0 0;
#X connect 19 0 2 0;
#X connect 20 0 21 0;
#X connect 21 0 17 0;
#X restore 100 220 pd cosin;
#X obj 148 183 hsl 80 10 1 127 0 1 empty empty empty -2 -8 0 10 -258113
-1 -1 2006 1;
#X obj 103 115 hsl 80 10 0 87.34 0 1 empty empty empty -2 -8 0 10 -260097
-1 -1 6784 1;
#X obj 102 328 outlet~;
#X obj 100 60 inlet;
#X obj 101 250 *~ 0.7;
#X obj 163 38 inlet;
#X obj 102 304 *~;
#X obj 117 281 line~;
#X obj 163 230 / 127;
#X floatatom 257 75 5 0 0 0 - - -;
#X obj 257 35 ctlin 1;
#X msg 163 250 \$1 90;
#X connect 0 0 5 0;
#X connect 1 0 0 1;
#X connect 2 0 0 0;
#X connect 4 0 2 0;
#X connect 5 0 7 0;
#X connect 6 0 9 0;
#X connect 7 0 3 0;
#X connect 8 0 7 1;
#X connect 9 0 12 0;
#X connect 10 0 1 0;
#X connect 11 0 10 0;
#X connect 12 0 8 0;
#X coords 0 0 1 1 86 40 0;
#X restore 50 20 pd coS;
#X obj 50 -15 unpack;
#X obj -8 250 outlet~;
#X floatatom -178 46 5 0 0 0 - - -;
#N canvas 0 0 466 449 coS 0;
#N canvas 0 0 466 487 cosin 0;
#X obj 184 220 outlet~;
#X obj 143 74 cos~;
#X floatatom 190 -136 4 0 100 0 - - -;
#X obj 190 -112 / 10;
#X obj 143 44 *~;
#X obj 190 -40 line~;
#X obj 190 -88 max 0;
#X text 39 -83 fundamental;
#X text 39 -64 frequency;
#X obj 185 74 cos~;
#X obj 226 -13 wrap~;
#X obj 190 14 -~;
#X obj 185 44 +~;
#X obj 190 111 -~;
#X obj 205 141 *~;
#X obj 183 166 +~;
#X obj 190 -64 pack 0 50;
#X obj 43 -15 phasor~ 130;
#X obj 184 192 hip~ 5;
#X obj 191 -166 inlet;
#X obj 117 -83 inlet;
#X obj 106 -48 mtof;
#X connect 1 0 13 1;
#X connect 1 0 15 0;
#X connect 2 0 3 0;
#X connect 3 0 6 0;
#X connect 4 0 1 0;
#X connect 4 0 12 0;
#X connect 5 0 11 0;
#X connect 5 0 10 0;
#X connect 6 0 16 0;
#X connect 9 0 13 0;
#X connect 10 0 11 1;
#X connect 10 0 14 1;
#X connect 11 0 4 1;
#X connect 12 0 9 0;
#X connect 13 0 14 0;
#X connect 14 0 15 1;
#X connect 15 0 18 0;
#X connect 16 0 5 0;
#X connect 17 0 4 0;
#X connect 17 0 12 1;
#X connect 18 0 0 0;
#X connect 19 0 2 0;
#X connect 20 0 21 0;
#X connect 21 0 17 0;
#X restore 100 220 pd cosin;
#X obj 148 183 hsl 80 10 1 127 0 1 empty empty empty -2 -8 0 10 -258113
-1 -1 2006 1;
#X obj 103 115 hsl 80 10 0 87.34 0 1 empty empty empty -2 -8 0 10 -260097
-1 -1 6332 1;
#X obj 101 348 outlet~;
#X obj 100 60 inlet;
#X obj 101 250 *~ 0.7;
#X obj 163 38 inlet;
#X obj 118 290 line~;
#X obj 163 230 / 127;
#X floatatom 257 75 5 0 0 0 - - -;
#X obj 257 35 ctlin 1;
#X obj 100 317 *~;
#X msg 152 254 \$1 90;
#X connect 0 0 5 0;
#X connect 1 0 0 1;
#X connect 2 0 0 0;
#X connect 4 0 2 0;
#X connect 5 0 11 0;
#X connect 6 0 8 0;
#X connect 7 0 11 1;
#X connect 8 0 12 0;
#X connect 9 0 1 0;
#X connect 10 0 9 0;
#X connect 11 0 3 0;
#X connect 12 0 7 0;
#X coords 0 0 1 1 86 40 0;
#X restore -135 21 pd coS;
#X obj -135 79 *~;
#X obj -67 78 *~;
#X obj 2 78 *~;
#X obj 70 77 *~;
#X obj 85 55 osc~ 0.011;
#X obj -52 56 osc~ 0.014;
#X obj -120 57 osc~ 0.027;
#X obj 17 56 osc~ 0.116;
#X obj -8 227 hip~ 5;
#N canvas 0 0 945 698 zeropole 0;
#X obj 338 356 rpole~;
#X obj 338 331 rzero_rev~;
#X obj 338 405 rpole~;
#X obj 338 380 rzero_rev~;
#X obj 338 453 rpole~;
#X obj 338 428 rzero_rev~;
#X obj 338 502 rpole~;
#X obj 338 477 rzero_rev~;
#X obj 322 527 +~;
#X obj 463 378 phasor~ 0.3;
#X obj 462 417 expr~ 1 - 0.03 - 0.6*abs($v1-0.5)*abs($v1-0.5);
#X obj 321 553 outlet~;
#X obj 323 257 inlet~;
#X connect 0 0 3 0;
#X connect 1 0 0 0;
#X connect 2 0 5 0;
#X connect 3 0 2 0;
#X connect 4 0 7 0;
#X connect 5 0 4 0;
#X connect 6 0 8 1;
#X connect 7 0 6 0;
#X connect 8 0 11 0;
#X connect 9 0 10 0;
#X connect 10 0 1 1;
#X connect 10 0 0 1;
#X connect 10 0 3 1;
#X connect 10 0 2 1;
#X connect 10 0 5 1;
#X connect 10 0 4 1;
#X connect 10 0 7 1;
#X connect 10 0 6 1;
#X connect 12 0 8 0;
#X connect 12 0 1 0;
#X restore -8 201 pd zeropole;
#X obj -9 169 mull~ 1 20;
#X obj 105 115 hsl 80 12 0 1 0 1 empty empty volume 10 5 0 10 -260097
-1 -1 7500 1;
#X obj -9 145 *~ 0.2;
#X connect 0 0 1 0;
#X connect 0 0 14 0;
#X connect 0 1 1 1;
#X connect 1 0 2 0;
#X connect 1 1 2 1;
#X connect 1 2 2 2;
#X connect 2 0 3 0;
#X connect 3 0 4 0;
#X connect 3 1 6 0;
#X connect 3 2 8 0;
#X connect 3 3 10 0;
#X connect 3 4 12 0;
#X connect 4 0 15 0;
#X connect 4 1 15 1;
#X connect 5 0 17 0;
#X connect 6 0 5 0;
#X connect 6 1 5 1;
#X connect 7 0 18 0;
#X connect 8 0 7 0;
#X connect 8 1 7 1;
#X connect 9 0 19 0;
#X connect 10 0 9 0;
#X connect 10 1 9 1;
#X connect 11 0 28 0;
#X connect 12 0 11 0;
#X connect 12 1 11 1;
#X connect 15 0 16 0;
#X connect 16 0 28 0;
#X connect 17 0 28 0;
#X connect 18 0 28 0;
#X connect 19 0 28 0;
#X connect 20 0 19 1;
#X connect 21 0 17 1;
#X connect 22 0 16 1;
#X connect 23 0 18 1;
#X connect 24 0 13 0;
#X connect 25 0 24 0;
#X connect 26 0 25 0;
#X connect 27 0 26 1;
#X connect 28 0 26 0;
#X coords 0 -1 1 1 90 30 1 100 100;
#X restore 68 27 pd PolyModCos5;
#N canvas 0 0 831 655 delay 0;
#X obj 275 16 inlet~;
#X obj 306 92 delwrite~ \$0-zxcv 2000;
#X obj 101 202 vd~ \$0-zxcv;
#X obj 101 174 sig~;
#X obj 105 115 hsl 40 12 20 2000 0 1 empty empty time_r 5 5 0 10 -257985
-1 -1 1700 1;
#X obj 101 226 outlet~;
#X obj 192 239 mull~ 1 20;
#X obj 105 129 hsl 90 9 0 1 0 1 empty empty feedback 5 5 0 10 -262130
-1 -1 8000 1;
#X obj 326 226 sig~;
#X obj 154 115 hsl 40 12 20 2000 0 1 empty empty time_l 5 5 0 10 -258113
-1 -1 1100 1;
#X obj 326 278 outlet~;
#X obj 417 291 mull~ 1 20;
#X obj 325 254 vd~ \$0-zxcc;
#X obj 531 144 delwrite~ \$0-zxcc 2000;
#X connect 0 0 1 0;
#X connect 0 0 5 0;
#X connect 0 0 10 0;
#X connect 0 0 13 0;
#X connect 2 0 5 0;
#X connect 2 0 6 0;
#X connect 3 0 2 0;
#X connect 4 0 3 0;
#X connect 6 0 1 0;
#X connect 7 0 6 1;
#X connect 7 0 11 1;
#X connect 8 0 12 0;
#X connect 9 0 8 0;
#X connect 11 0 13 0;
#X connect 12 0 10 0;
#X connect 12 0 11 0;
#X coords 0 -1 1 1 100 40 1 100 100;
#X restore 68 108 pd delay;
#X text 211 34 use with a midi keyboard and modwheel - ctlin 1;
#X connect 0 0 3 0;
#X connect 2 0 0 0;
#X connect 3 0 1 0;
#X connect 3 1 1 1;
