#N canvas 329 95 668 541 10;
#X obj 325 160 pack f f f;
#X floatatom 260 108 5 0 0 0 - - -;
#X floatatom 260 128 5 0 0 0 - - -;
#X floatatom 260 148 5 0 0 0 - - -;
#X text 181 107 voice number;
#X text 186 127 note number;
#X text 202 147 velocity;
#X obj 325 41 notein;
#X msg 254 75 stop;
#X text 24 73 send note-offs for all active voices;
#X obj 347 295 *~ 0.25;
#X obj 361 340 dac~;
#X obj 332 106 poly 8 1;
#X obj 303 190 route 1 2 3 4 5 6 7 8;
#X text 432 37;
#X text 125 38;
#N canvas 0 22 450 300 chip 1;
#X obj 101 327 phasor~;
#X floatatom 151 330 5 0 0.5 0 - - -;
#X obj 100 383 /~;
#X obj 114 354 -~;
#X obj 101 404 clip~ -1 1;
#X obj 176 404 samphold~;
#X obj 177 380 noise~;
#X obj 225 379 phasor~ 50;
#X obj 224 354 sig~;
#X obj 24 296 sig~;
#X obj 23 398 -~;
#X obj 23 323 phasor~;
#X obj 64 375 *~ 1;
#X obj 23 374 *~ 2;
#X obj 23 347 clip~ 0 0.5;
#X obj 23 420 *~ 2;
#X obj 224 329 * 10;
#X obj 311 375 *~;
#X obj 311 401 hip~ 40;
#X obj 143 164 f;
#X obj 143 186 + 1;
#X obj 167 164 % 8;
#X msg 142 111 stop;
#X obj 192 164 sel 0;
#X msg 242 101 0;
#X obj 183 72 bng 15 250 50 0 empty empty empty 0 -6 0 8 -262144 -1
-1;
#X text 202 69 trigger note;
#X text 230 162 counts to 8;
#X text 230 174 resets metro;
#X obj 310 263 sel 0;
#X obj 346 263 sel 1;
#X obj 381 263 sel 2;
#X obj 418 262 sel 3;
#X obj 142 135 metro 25;
#X text 195 135 1/25th sec;
#X obj 310 348 receive~;
#X msg 310 286 set bk;
#X obj 183 100 delay 25;
#X obj 23 249 +;
#X floatatom 47 229 5 0 0 0 - - -;
#X obj 23 272 mtof;
#X msg 272 101 1;
#X text 182 15 midi velocity;
#X obj 311 433 outlet~;
#X text 362 432 audio out;
#X obj 279 40 sel 0;
#X obj 304 65 bng 15 250 50 0 empty empty empty 0 -6 0 8 -262144 -1
-1;
#X obj 281 64 bng 15 250 50 0 empty empty empty 0 -6 0 8 -262144 -1
-1;
#X msg 302 101 0;
#X obj 151 263 ctlin 1 1;
#X obj 151 286 / 254;
#X text 209 262 modwheel PWM;
#X obj 326 202 adsr 1 2 0 100 300;
#X floatatom 429 93 5 0 1 1 max_amplitude - -;
#X floatatom 429 112 5 2 400 1 attack_ms - -;
#X floatatom 429 131 5 2 400 1 decay_ms - -;
#X floatatom 429 150 5 0 100 1 sustain_percent - -;
#X floatatom 429 172 5 2 400 1 release_ms - -;
#X text 451 74 ADSR parameters;
#X obj 325 16 loadbang;
#X obj 324 63 unpack f f f f f f;
#X msg 325 43 1 2 0 100 300 0.5;
#X text 434 44 Defaults;
#X obj 313 236 tabread i4ws;
#X obj 23 208 tabread i4ps;
#X obj 23 444 send~ ti4;
#X obj 101 430 send~ sq4;
#X obj 177 436 send~ ns4;
#X msg 418 307 set ns4;
#X msg 381 286 set sq4;
#X msg 346 308 set ti4;
#X obj 51 15 inlet;
#X obj 47 55 unpack f f;
#X connect 0 0 2 0;
#X connect 0 0 3 0;
#X connect 1 0 3 1;
#X connect 2 0 4 0;
#X connect 3 0 2 1;
#X connect 4 0 66 0;
#X connect 5 0 67 0;
#X connect 6 0 5 0;
#X connect 7 0 5 1;
#X connect 8 0 7 0;
#X connect 9 0 11 0;
#X connect 9 0 0 0;
#X connect 10 0 15 0;
#X connect 11 0 12 0;
#X connect 11 0 14 0;
#X connect 12 0 10 1;
#X connect 13 0 10 0;
#X connect 14 0 13 0;
#X connect 15 0 65 0;
#X connect 16 0 8 0;
#X connect 17 0 18 0;
#X connect 18 0 43 0;
#X connect 19 0 20 0;
#X connect 19 0 63 0;
#X connect 19 0 64 0;
#X connect 20 0 21 0;
#X connect 21 0 19 1;
#X connect 21 0 23 0;
#X connect 22 0 33 0;
#X connect 23 0 22 0;
#X connect 24 0 19 0;
#X connect 25 0 24 0;
#X connect 25 0 37 0;
#X connect 29 0 36 0;
#X connect 30 0 70 0;
#X connect 31 0 69 0;
#X connect 32 0 68 0;
#X connect 33 0 19 0;
#X connect 35 0 17 0;
#X connect 36 0 35 0;
#X connect 37 0 33 0;
#X connect 38 0 40 0;
#X connect 39 0 38 1;
#X connect 40 0 16 0;
#X connect 40 0 9 0;
#X connect 45 0 47 0;
#X connect 45 1 46 0;
#X connect 45 1 25 0;
#X connect 46 0 41 0;
#X connect 47 0 48 0;
#X connect 49 0 50 0;
#X connect 50 0 1 0;
#X connect 59 0 61 0;
#X connect 60 0 53 0;
#X connect 60 1 54 0;
#X connect 60 2 55 0;
#X connect 60 3 56 0;
#X connect 60 4 57 0;
#X connect 60 5 1 0;
#X connect 61 0 60 0;
#X connect 63 0 29 0;
#X connect 63 0 30 0;
#X connect 63 0 31 0;
#X connect 63 0 32 0;
#X connect 64 0 38 0;
#X connect 68 0 35 0;
#X connect 69 0 35 0;
#X connect 70 0 35 0;
#X connect 71 0 72 0;
#X connect 72 0 39 0;
#X connect 72 1 45 0;
#X restore 268 239 pd chip;
#X connect 0 0 13 0;
#X connect 7 0 12 0;
#X connect 7 1 12 1;
#X connect 8 0 12 0;
#X connect 10 0 11 0;
#X connect 10 0 11 1;
#X connect 12 0 0 0;
#X connect 12 0 1 0;
#X connect 12 1 0 1;
#X connect 12 1 2 0;
#X connect 12 2 0 2;
#X connect 12 2 3 0;
#X connect 13 0 16 0;
#X connect 16 0 10 0;
