#N canvas 917 44 647 813 10;
#X obj 72 51 vsl 15 128 0.5 0.977 0 0 empty leadmuting empty 0 -8 0
10 -262144 -1 -1 12700 1;
#X floatatom 86 191 5 0 0 0 - - -;
#X text 60 199 mute strings;
#X obj -11 458 dac~;
#X obj 172 113 hsl 128 15 2 50 0 0 \$0-pick-location empty empty -2
-6 0 10 -262144 -1 -1 794 1;
#X text 197 79 pick location;
#X obj 170 51 loadbang;
#X floatatom 169 137 5 0 0 0 - - -;
#X text 153 137 1/;
#X text 202 137 up string from bridge;
#X obj -1 430 *~;
#X obj 29 284 vsl 15 128 0 1 0 0 empty empty empty 0 -8 0 10 -262144
-1 -1 3810 1;
#X msg 169 71 5;
#X text 53 361 volume;
#X text 320 409 sg 2008;
#X text 65 -25 KARPLUS-STRONG SYNTHESIS WITH BODY FORMANTS;
#X obj 67 -6 loadbang;
#X msg 72 25 0.977;
#X floatatom 29 420 5 0 0 0 - - -;
#X obj 29 243 loadbang;
#X msg 29 263 0.3;
#X obj 0 44 vsl 15 128 0.5 0.977 0 0 empty fatness empty 0 -8 0 10
-262144 -1 -1 12274 1;
#X floatatom 14 184 5 0 0 0 - - -;
#X obj -5 -13 loadbang;
#X obj -169 -65 notein;
#X floatatom -198 76 5 0 0 0 - - -;
#X floatatom -199 121 5 0 0 0 - - -;
#X floatatom -199 99 5 0 0 0 - - -;
#X floatatom -202 -38 5 0 0 0 - - -;
#X obj -169 -11 stripnote;
#X obj -137 112 pack f f;
#N canvas 274 361 548 498 voices 0;
#X obj 85 26 inlet;
#X obj 256 27 inlet;
#X obj 126 291 outlet~;
#X obj 126 238 *~ 0.25;
#X obj 84 56 route 1 2 3 4;
#X obj -33 145 stringunit;
#X obj 72 145 stringunit;
#X obj 175 145 stringunit;
#X obj 273 145 stringunit;
#X connect 0 0 4 0;
#X connect 1 0 5 1;
#X connect 1 0 6 1;
#X connect 1 0 7 1;
#X connect 1 0 8 1;
#X connect 3 0 2 0;
#X connect 4 0 5 0;
#X connect 4 1 6 0;
#X connect 4 2 7 0;
#X connect 4 3 8 0;
#X connect 5 0 3 0;
#X connect 6 0 3 0;
#X connect 7 0 3 0;
#X connect 8 0 3 0;
#X restore -87 244 pd voices;
#X floatatom -147 21 5 0 0 0 - - -;
#X obj -168 51 poly 4 1;
#X msg -65 34 1;
#X obj -65 6 loadbang;
#X msg 0 18 0.961;
#X floatatom -202 24 5 0 0 0 - midinote -;
#X connect 0 0 1 0;
#X connect 0 0 31 1;
#X connect 4 0 7 0;
#X connect 6 0 12 0;
#X connect 10 0 3 0;
#X connect 10 0 3 1;
#X connect 11 0 10 1;
#X connect 11 0 18 0;
#X connect 12 0 4 0;
#X connect 16 0 17 0;
#X connect 17 0 0 0;
#X connect 19 0 20 0;
#X connect 20 0 11 0;
#X connect 21 0 22 0;
#X connect 21 0 31 1;
#X connect 23 0 36 0;
#X connect 24 0 28 0;
#X connect 24 0 29 0;
#X connect 24 1 29 1;
#X connect 29 0 32 0;
#X connect 29 0 33 0;
#X connect 30 0 31 0;
#X connect 31 0 10 0;
#X connect 33 0 25 0;
#X connect 33 0 30 0;
#X connect 33 1 27 0;
#X connect 33 1 30 1;
#X connect 33 2 26 0;
#X connect 34 0 33 1;
#X connect 35 0 34 0;
#X connect 36 0 21 0;
#X connect 37 0 33 0;
