#N canvas 731 56 583 402 10;
#X obj 251 361 dac~;
#X obj 251 293 *~;
#X obj 251 324 *~ 0.1;
#X floatatom 282 168 5 0 0 0 - - -;
#X obj 283 137 mtof;
#X obj 188 194 vline~;
#X obj 362 215 phasor~ 220;
#X obj 272 217 osc~ 220;
#X floatatom 283 71 5 0 0 0 r:midinote midinote -;
#X obj 94 69 bng 15 250 50 0 empty trigger r:trigger 17 7 0 10 -262144
-1 -1;
#X msg 94 152 1 10 \, 0 1000 10;
#X connect 1 0 2 0;
#X connect 2 0 0 0;
#X connect 2 0 0 1;
#X connect 3 0 6 0;
#X connect 3 0 7 0;
#X connect 4 0 3 0;
#X connect 5 0 1 0;
#X connect 6 0 1 1;
#X connect 7 0 1 1;
#X connect 8 0 4 0;
#X connect 9 0 10 0;
#X connect 10 0 5 0;
